<svg xmlns="http://www.w3.org/2000/svg" viewBox="0 0 512 512"><defs><linearGradient id="bg" x1="0" y1="0" x2="1" y2="1"><stop stop-color="#07101d"/><stop offset="1" stop-color="#0b111c"/></linearGradient><linearGradient id="blue" x1="0" y1="0" x2="1" y2="1"><stop stop-color="#1ac8ff"/><stop offset=".45" stop-color="#1467ff"/><stop offset="1" stop-color="#6b32ff"/></linearGradient><linearGradient id="violet" x1="1" y1="0" x2="0" y2="1"><stop stop-color="#0bbcff"/><stop offset=".55" stop-color="#2c54ff"/><stop offset="1" stop-color="#7a2dff"/></linearGradient></defs><rect width="512" height="512" rx="118" fill="url(#bg)"/><path d="M105 370V142c0-22 25-34 42-20l109 91 109-91c17-14 42-2 42 20v228c0 22-27 34-44 18l-107-98-107 98c-17 16-44 4-44-18z" fill="none" stroke="url(#blue)" stroke-width="42" stroke-linecap="round" stroke-linejoin="round"/><path d="M126 153l130 116 130-116" fill="none" stroke="url(#violet)" stroke-width="28" stroke-linecap="round" stroke-linejoin="round"/><path d="M127 357l129-118 129 118" fill="none" stroke="#2458ff" stroke-width="28" stroke-linecap="round" stroke-linejoin="round" opacity=".96"/></svg>